# AST/ASF file generated using VICON BodyLanguage
# -----------------------------------------------
:version 1.10
:name VICON
:units
  mass 1.0
  length 0.45
  angle deg
:documentation
   .ast/.asf automatically generated from VICON data using
   VICON BodyBuilder and BodyLanguage model FoxedUp or BRILLIANT.MOD
:root
   order TX TY TZ RX RY RZ
   axis XYZ
   position 0 0 0  
   orientation 0 0 0 
:bonedata
  begin
     id 1 
     name lhipjoint
     direction 0.707368 -0.647095 0.284426 
     length 2.60678 
     axis 0 0 0  XYZ
  end
  begin
     id 2 
     name lfemur
     direction 0.34202 -0.939693 0  
     length 6.63812  
     axis 0 0 20  XYZ
    dof rx ry rz
    limits (-160.0 20.0)
           (-70.0 70.0)
           (-60.0 70.0)
  end
  begin
     id 3 
     name ltibia
     direction 0.34202 -0.939693 0   
     length 7.51178   
     axis 0 0 20   XYZ
    dof rx
    limits (-10.0 170.0)
  end
  begin
     id 4 
     name lfoot
     direction 0.121251 -0.333133 0.935051   
     length 1.83716   
     axis -90 7.62852e-016 20   XYZ
    dof rx rz
    limits (-45.0 90.0)
           (-70.0 20.0)
  end
  begin
     id 5 
     name ltoes
     direction 1.53611e-011 -4.21962e-011 1   
     length 0.916133   
     axis -90 7.62852e-016 20   XYZ
    dof rx
    limits (-90.0 20.0)
  end
  begin
     id 6 
     name rhipjoint
     direction -0.692419 -0.660507 0.290321   
     length 2.55385  
     axis 0 0 0  XYZ 
  end
  begin
     id 7 
     name rfemur
     direction -0.34202 -0.939693 0   
     length 7.29079   
     axis 0 0 -20   XYZ
    dof rx ry rz
    limits (-160.0 20.0)
           (-70.0 70.0)
           (-70.0 60.0)
  end
  begin
     id 8 
     name rtibia
     direction -0.34202 -0.939693 0   
     length 7.47143   
     axis 0 0 -20   XYZ
    dof rx
    limits (-10.0 170.0)
 end
 begin
     id 9 
     name rfoot
     direction -0.119907 -0.329441 0.936532   
     length 1.79439  
     axis -90 -7.62852e-016 -20   XYZ
    dof rx rz
    limits (-45.0 90.0)
           (-20.0 70.0)
  end
  begin
     id 10 
     name rtoes
     direction -1.53571e-011 -4.21961e-011 1   
     length 0.896039   
     axis -90 -7.62852e-016 -20   XYZ
    dof rx
    limits (-90.0 20.0)
  end
  begin
     id 11 
     name lowerback
     direction 0.0367721 0.992912 -0.113016   
     length 1.73542   
     axis 0 0 0   XYZ
    dof rx ry rz
    limits (-20.0 45.0)
           (-30.0 30.0)
           (-30.0 30.0)
  end
  begin
     id 12 
     name upperback
     direction -0.000314626 0.990678 0.136227   
     length 1.7514   
     axis 0 0 0   XYZ
    dof rx ry rz
    limits (-20.0 45.0)
           (-30.0 30.0)
           (-30.0 30.0)
  end
  begin
     id 13 
     name thorax
     direction -0.0226159 0.981151 0.191917   
     length 1.71471   
     axis 0 0 0   XYZ
    dof rx ry rz
    limits (-20.0 45.0)
           (-30.0 30.0)
           (-30.0 30.0)
  end
  begin
     id 14 
     name lowerneck
     direction 0.0219333 0.998071 0.0580739   
     length 1.65882   
     axis 0 0 0   XYZ
    dof rx ry rz
    limits (-20.0 45.0)
           (-30.0 30.0)
           (-30.0 30.0)
  end
  begin
     id 15 
     name upperneck
     direction 0.0384529 0.980058 -0.194957   
     length 1.6612   
     axis 0 0 0   XYZ
    dof rx ry rz
    limits (-20.0 45.0)
           (-30.0 30.0)
           (-30.0 30.0)
  end
  begin
     id 16
     name head
     direction 0.00592123 0.997421 -0.0715234  
     length 1.68077  
     axis 0 0 0   XYZ
    dof rx ry rz
    limits (-20.0 45.0)
           (-30.0 30.0)
           (-30.0 30.0)
  end
  begin
     id 17 
     name lclavicle
     direction 0.904803 0.417826 0.0821728  
     length 3.42227  
     axis 0 0 0   XYZ
    dof ry rz
    limits (-20.0 10.0)
           (0.0 20.0)
  end
  begin
     id 18 
     name lhumerus
     direction 1 -4.48965e-011 -2.68786e-027   
     length 5.11878   
     axis -180 -30 -90   XYZ
    dof rx ry rz
    limits (-60.0 90.0)
           (-90.0 90.0)
           (-90.0 90.0)
  end
  begin
     id 19
     name lradius
     direction 1 -4.48965e-011 2.61168e-028   
     length 3.59971   
     axis -180 -30 -90   XYZ
    dof rx
    limits (-10.0 170.0)
  end
  begin
     id 20
     name lwrist
     direction 1 -4.48965e-011 1.58672e-027   
     length 1.79985   
     axis -1.65735e-015 90 90   XYZ
    dof ry
    limits (-180.0 0.0)
 end
  begin
     id 21 
     name lhand
     direction 1 -4.48942e-011 3.17344e-027   
     length 0.62877   
     axis -2.02492e-015 90 90   XYZ
    dof rx rz
    limits (-90.0 90.0)
           (-45.0 45.0)
  end
  begin
     id 22 
     name lfingers
     direction 1 -4.49011e-011 6.34687e-027   
     length 0.506931   
     axis -4.04985e-015 90 90   XYZ
    dof rx
    limits (0.0 90.0)
  end
  begin
     id 23
     name lthumb
     direction 0.707107 -6.34982e-011 0.707107   
     length 0.727854   
     axis -90 45 2.85299e-015   XYZ
    dof rx rz
    limits (-45.0 45.0)
           (-45.0 45.0)
  end
  begin
     id 24 
     name rclavicle
     direction -0.945647 0.32488 0.0143075   
     length 3.52737  
     axis 0 0 0   XYZ 
    dof ry rz
    limits (-10.0 20.0)
           (-20.0 0.0)
  end
  begin
     id 25 
     name rhumerus
     direction -1 -4.48962e-011 1.92182e-027  
     length 5.4902   
     axis -180 30 90   XYZ
    dof rx ry rz
    limits (-90.0 60.0)
           (-90.0 90.0)
           (-90.0 90.0)
  end
  begin
     id 26 
     name rradius
     direction -1 -4.48967e-011 -5.97193e-028   
     length 3.20659   
     axis -180 30 90   XYZ
    dof rx
    limits (-10.0 170.0)
  end
  begin
     id 27 
     name rwrist
     direction -1 -4.48964e-011 1.58672e-027   
     length 1.6033   
     axis -1.65735e-015 -90 -90   XYZ
    dof ry
    limits (-180.0 0.0)
  end
  begin
     id 28
     name rhand
     direction -1 -4.49006e-011 3.17344e-027   
     length 0.691885   
     axis -2.02492e-015 -90 -90   XYZ
    dof rx rz
    limits (-90.0 90.0)
           (-45.0 45.0)
  end
  begin
     id 29
     name rfingers
     direction -1 -4.48908e-011 6.34687e-027   
     length 0.557815   
     axis -4.04985e-015 -90 -90   XYZ
    dof rx
    limits (0.0 90.0)
  end
  begin
     id 30
     name rthumb
     direction -0.707107 -6.34999e-011 0.707107   
     length 0.800915   
     axis -90 -45 -2.85299e-015   XYZ
    dof rx rz
    limits (-45.0 45.0)
           (-45.0 45.0)
  end
:hierarchy
  begin
    root lhipjoint rhipjoint lowerback
    lhipjoint lfemur
    lfemur ltibia
    ltibia lfoot
    lfoot ltoes
    rhipjoint rfemur
    rfemur rtibia
    rtibia rfoot
    rfoot rtoes
    lowerback upperback
    upperback thorax
    thorax lowerneck lclavicle rclavicle
    lowerneck upperneck
    upperneck head
    lclavicle lhumerus
    lhumerus lradius
    lradius lwrist
    lwrist lhand lthumb
    lhand lfingers
    rclavicle rhumerus
    rhumerus rradius
    rradius rwrist
    rwrist rhand rthumb
    rhand rfingers
  end

#!OML:ASF I:\Actors\actors\Patient Classification 1\Patient 1\Session 1\Subject1.ASF
:FULLY-SPECIFIED
:DEGREES
86
root -0.395401 17.4754 7.39814 5.79255 -0.0208946 -7.59582
lowerback 1.26283 1.76655 6.07952
upperback -8.75856 2.83966 0.604631
thorax -9.76391 0.934674 -3.01673
lowerneck -8.20588 -5.40995 -3.58374
upperneck 25.3708 -9.54128 9.59643
head 10.048 -3.77518 2.89734
rclavicle -2.45499e-014 -1.82882e-014
rhumerus -42.132 -17.5636 -80.9528
rradius 22.7808
rwrist 41.131
rhand 2.30791 -33.595
rfingers 7.12502
rthumb 27.799 -61.559
lclavicle -2.45499e-014 -1.82882e-014
lhumerus -41.5293 1.66706 87.4533
lradius 21.9997
lwrist -21.7387
lhand -15.4731 -11.9338
lfingers 7.12502
lthumb 10.7084 17.7733
rfemur 0.89344 24.1963 26.7502
rtibia 1.64441
rfoot -12.3392 -22.8409
rtoes 3.75754
lfemur 8.34044 -39.6487 -15.8802
ltibia -4.58308
lfoot -12.6013 44.9785
ltoes 1.88576
87
root -0.394912 17.4754 7.40341 5.82422 -0.0125303 -7.57489
lowerback 1.22303 1.74909 6.06363
upperback -8.74531 2.8114 0.606301
thorax -9.72838 0.923711 -3.00179
lowerneck -8.14307 -5.43057 -3.70623
upperneck 25.214 -9.56291 9.71257
head 9.99307 -3.79196 2.95609
rclavicle 1.53064e-014 -1.19271e-014
rhumerus -42.0148 -17.4879 -81.015
rradius 22.7302
rwrist 41.2224
rhand 2.28727 -33.6267
rfingers 7.12502
rthumb 27.7793 -61.5939
lclavicle 1.53064e-014 -1.19271e-014
lhumerus -41.5159 1.80017 87.3967
lradius 21.967
lwrist -21.8688
lhand -15.4056 -11.9554
lfingers 7.12502
lthumb 10.7735 17.7483
rfemur 0.899535 24.2014 26.7246
rtibia 1.61346
rfoot -12.3269 -22.8461
rtoes 3.64264
lfemur 8.31549 -39.6449 -15.8948
ltibia -4.56325
lfoot -12.671 44.9504
ltoes 1.95507
88
root -0.393644 17.4741 7.40824 5.86578 -0.0315623 -7.56856
lowerback 1.23006 1.73582 6.05465
upperback -8.77982 2.79555 0.612018
thorax -9.77359 0.914701 -2.99027
lowerneck -8.04081 -5.43773 -3.76729
upperneck 25.111 -9.56369 9.75694
head 9.94129 -3.80051 2.98332
rclavicle -1.2921e-015 -1.98785e-015
rhumerus -41.9905 -17.2814 -81.125
rradius 22.7573
rwrist 41.0592
rhand 2.20962 -33.585
rfingers 7.12502
rthumb 27.705 -61.5641
lclavicle -1.2921e-015 -1.98785e-015
lhumerus -41.5644 1.9612 87.322
lradius 21.8848
lwrist -22.0426
lhand -15.4207 -11.9908
lfingers 7.12502
lthumb 10.759 17.7137
rfemur 0.882433 24.2149 26.7031
rtibia 1.58993
rfoot -12.3118 -22.8514
rtoes 3.41845
lfemur 8.31289 -39.6993 -15.9198
ltibia -4.5559
lfoot -12.7637 44.9988
ltoes 2.17429
89
root -0.392839 17.4738 7.41153 5.87995 -0.0659681 -7.5956
lowerback 1.2954 1.73164 6.05772
upperback -8.82243 2.79878 0.629807
thorax -9.86138 0.912944 -2.97669
lowerneck -7.94215 -5.43942 -3.75632
upperneck 25.039 -9.55685 9.74087
head 9.8941 -3.80388 2.97822
rclavicle -2.97183e-014 -2.94201e-014
rhumerus -42.0283 -17.1024 -81.2132
rradius 22.8349
rwrist 40.794
rhand 2.1348 -33.5408
rfingers 7.12502
rthumb 27.6335 -61.5314
lclavicle -2.97183e-014 -2.94201e-014
lhumerus -41.646 2.08462 87.2757
lradius 21.8028
lwrist -22.2063
lhand -15.5409 -12.0652
lfingers 7.12502
lthumb 10.643 17.6453
rfemur 0.882058 24.2463 26.7328
rtibia 1.5784
rfoot -12.3012 -22.8486
rtoes 3.40291
lfemur 8.34453 -39.7134 -15.9142
ltibia -4.57117
lfoot -12.7706 45.0491
ltoes 2.27056
90
root -0.392756 17.475 7.41413 5.89344 -0.0999935 -7.61723
lowerback 1.32252 1.7306 6.06144
upperback -8.83457 2.80181 0.647999
thorax -9.89191 0.913666 -2.96091
lowerneck -7.88227 -5.42555 -3.74788
upperneck 24.9566 -9.52782 9.73405
head 9.84949 -3.7951 2.97834
rclavicle 1.12313e-014 3.10104e-014
rhumerus -42.0282 -16.9881 -81.2734
rradius 22.9144
rwrist 40.6738
rhand 2.1304 -33.5018
rfingers 7.12502
rthumb 27.6293 -61.4931
lclavicle 1.12313e-014 3.10104e-014
lhumerus -41.6726 2.1408 87.2781
lradius 21.7312
lwrist -22.2937
lhand -15.5563 -12.1159
lfingers 7.12502
lthumb 10.6282 17.5953
rfemur 0.872698 24.2632 26.7552
rtibia 1.58087
rfoot -12.3039 -22.8368
rtoes 3.5204
lfemur 8.35586 -39.6972 -15.8924
ltibia -4.58183
lfoot -12.7466 45.0803
ltoes 2.19914
91
root -0.393132 17.4758 7.41717 5.92529 -0.135977 -7.61304
lowerback 1.3141 1.71458 6.04458
upperback -8.83835 2.77952 0.660881
thorax -9.89437 0.904561 -2.93553
lowerneck -7.88853 -5.39519 -3.76452
upperneck 24.9078 -9.48525 9.76883
head 9.8323 -3.77476 2.99772
rclavicle 2.14687e-014 7.15625e-015
rhumerus -41.9902 -16.8954 -81.3241
rradius 22.9571
rwrist 40.7223
rhand 2.20411 -33.4224
rfingers 7.12502
rthumb 27.6998 -61.4024
lclavicle 2.14687e-014 7.15625e-015
lhumerus -41.6989 2.16216 87.2956
lradius 21.7076
lwrist -22.254
lhand -15.3732 -12.124
lfingers 7.12502
lthumb 10.8048 17.5781
rfemur 0.845174 24.3019 26.7399
rtibia 1.58872
rfoot -12.3245 -22.8473
rtoes 3.58202
lfemur 8.35541 -39.7488 -15.9033
ltibia -4.57713
lfoot -12.7999 45.1639
ltoes 2.14174
92
root -0.392736 17.4751 7.42257 5.93582 -0.191801 -7.62313
lowerback 1.30421 1.71223 6.06701
upperback -8.82553 2.77642 0.662869
thorax -9.87374 0.902197 -2.94495
lowerneck -7.92511 -5.39388 -3.78322
upperneck 24.8689 -9.48843 9.81623
head 9.82921 -3.77324 3.01569
rclavicle -9.34288e-015 -7.95139e-015
rhumerus -41.9467 -16.8864 -81.3543
rradius 22.9896
rwrist 40.7769
rhand 2.2507 -33.4188
rfingers 7.12502
rthumb 27.7443 -61.3916
lclavicle -9.34288e-015 -7.95139e-015
lhumerus -41.7031 2.26378 87.2386
lradius 21.682
lwrist -22.419
lhand -15.1437 -11.9712
lfingers 7.12502
lthumb 11.0262 17.7192
rfemur 0.86118 24.3435 26.7546
rtibia 1.58516
rfoot -12.3319 -22.8365
rtoes 3.55442
lfemur 8.48288 -39.9752 -16.0064
ltibia -4.60419
lfoot -13.0021 45.4206
ltoes 2.39259
